<?xml version="1.0" encoding="utf-8"?>
<!-- Generator: Adobe Illustrator 17.0.0, SVG Export Plug-In . SVG Version: 6.00 Build 0)  -->
<!DOCTYPE svg PUBLIC "-//W3C//DTD SVG 1.1//EN" "http://www.w3.org/Graphics/SVG/1.1/DTD/svg11.dtd">
<svg version="1.1" id="Layer_1" xmlns="http://www.w3.org/2000/svg" xmlns:xlink="http://www.w3.org/1999/xlink" x="0px" y="0px"
	 width="128px" height="128px" viewBox="0 0 128 128" enable-background="new 0 0 128 128" xml:space="preserve">
<g id="XMLID_1_">
	<polygon fill="#00C853" points="128,0 128,128 34.131,128 81.069,81.069 81.069,68.269 68.269,68.269 81.069,55.469 81.069,42.669 
		68.269,42.669 81.069,29.869 81.069,17.069 17.069,17.069 0,34.131 0,0 	"/>
	<polygon fill="#FFFFFF" points="81.069,68.269 81.069,81.069 17.069,81.069 17.069,68.269 68.269,68.269 	"/>
	<polygon fill="#FFFFFF" points="81.069,42.669 81.069,55.469 17.069,55.469 17.069,42.669 68.269,42.669 	"/>
	<rect x="17.069" y="17.069" fill="#FFFFFF" width="64" height="12.8"/>
	<polygon fill="#43A047" points="81.069,29.869 68.269,42.669 17.069,42.669 17.069,55.469 81.069,55.469 68.269,68.269 
		17.069,68.269 17.069,81.069 81.069,81.069 34.131,128 0,128 0,34.131 17.069,17.069 17.069,29.869 	"/>
</g>
</svg>
