<?xml version="1.0" encoding="utf-8"?>
<!-- Generator: Adobe Illustrator 17.0.0, SVG Export Plug-In . SVG Version: 6.00 Build 0)  -->
<!DOCTYPE svg PUBLIC "-//W3C//DTD SVG 1.1//EN" "http://www.w3.org/Graphics/SVG/1.1/DTD/svg11.dtd">
<svg version="1.1" id="Layer_1" xmlns="http://www.w3.org/2000/svg" xmlns:xlink="http://www.w3.org/1999/xlink" x="0px" y="0px"
	 width="128px" height="128px" viewBox="-49.5 89.5 128 128" enable-background="new -49.5 89.5 128 128" xml:space="preserve">
<g id="XMLID_2_">
	<polygon fill="#00993F" points="78.5,153.5 78.5,217.5 18.5,217.5 -32.5,166.5 31.5,166.5 31.5,154.5 -20.5,154.5 -32.5,142.5 
		31.5,142.5 31.5,130.5 -20.5,130.5 -32.5,118.5 31.5,118.5 31.5,106.5 	"/>
	<polygon fill="#00C853" points="78.5,89.5 78.5,153.5 31.5,106.5 -32.5,106.5 -32.5,118.5 -20.5,130.5 -32.5,130.5 -32.5,142.5 
		-20.5,154.5 -32.5,154.5 -32.5,166.5 18.5,217.5 -49.5,217.5 -49.5,89.5 	"/>
	<polygon fill="#FFFFFF" points="-20.5,154.5 31.5,154.5 31.5,166.5 -32.5,166.5 -32.5,154.5 	"/>
	<polygon fill="#FFFFFF" points="-20.5,130.5 31.5,130.5 31.5,142.5 -32.5,142.5 -32.5,130.5 	"/>
	<rect x="-32.5" y="106.5" fill="#FFFFFF" width="64" height="12"/>
</g>
</svg>
